<?xml version="1.0" standalone="no"?>
<!DOCTYPE svg PUBLIC "-//W3C//DTD SVG 20010904//EN"
 "http://www.w3.org/TR/2001/REC-SVG-20010904/DTD/svg10.dtd">
<svg version="1.0" xmlns="http://www.w3.org/2000/svg"
 width="300.000000pt" height="300.000000pt" viewBox="0 0 300.000000 300.000000"
 preserveAspectRatio="xMidYMid meet">
<metadata>
Created by potrace 1.10, written by Peter Selinger 2001-2011
</metadata>
<g transform="translate(0.000000,300.000000) scale(0.100000,-0.100000)"
fill="#000000" stroke="none">
<path d="M1247 2975 c-314 -51 -600 -198 -822 -420 -171 -172 -296 -376 -368
-600 -36 -113 -60 -235 -46 -235 14 0 30 39 56 134 47 175 126 346 231 496 70
99 254 277 361 348 319 213 697 295 1066 232 596 -102 1057 -546 1187 -1143
31 -144 32 -446 0 -587 -107 -484 -426 -869 -877 -1056 -49 -20 -159 -54 -244
-75 -162 -40 -206 -59 -134 -59 110 0 323 60 479 135 151 73 267 157 399 289
222 223 348 453 417 763 32 141 32 452 0 596 -67 303 -198 544 -412 757 -210
211 -437 337 -730 407 -134 32 -422 41 -563 18z"/>
<path d="M1062 2153 c-23 -9 -42 -61 -42 -117 0 -44 5 -61 24 -83 l24 -28 162
0 c158 0 162 1 181 24 15 18 19 39 19 95 0 63 -3 75 -23 94 -22 21 -32 22
-178 21 -85 0 -160 -3 -167 -6z m328 -103 c0 -38 0 -72 0 -76 0 -3 -73 -5
-162 -5 l-163 0 -3 75 -3 76 166 0 165 0 0 -70z"/>
<path d="M1205 1824 c-24 -26 -25 -30 -25 -195 0 -205 -2 -209 -104 -209 -49
0 -69 -5 -90 -21 -24 -19 -26 -26 -26 -100 0 -73 2 -82 26 -106 25 -25 29 -25
118 -21 145 8 234 57 291 160 l30 53 3 209 c3 204 3 209 -19 232 -20 21 -31
24 -101 24 -73 0 -81 -2 -103 -26z m185 -207 c0 -105 -4 -207 -10 -226 -20
-70 -83 -133 -160 -160 -19 -7 -77 -15 -127 -18 l-93 -6 0 87 0 86 81 0 c76 0
82 2 110 29 l29 29 0 186 0 186 85 0 85 0 0 -193z"/>
<path d="M1545 1763 c-29 -4 -75 -38 -75 -54 0 -5 64 -174 142 -376 78 -202
152 -397 165 -433 13 -36 37 -78 54 -95 l29 -30 29 30 c21 22 64 122 166 385
75 195 139 357 141 359 2 3 64 6 136 7 123 2 134 4 150 24 23 28 23 72 0 100
-16 19 -28 22 -122 25 -58 1 -110 -2 -117 -7 -7 -6 -32 -6 -65 0 -29 5 -123 7
-208 5 -85 -2 -164 -4 -174 -4 -11 0 -27 -4 -37 -10 -15 -8 -21 -4 -34 21 -8
16 -23 34 -33 39 -23 12 -107 20 -147 14z m135 -39 c0 -1 38 -109 85 -240 47
-131 88 -246 91 -253 3 -8 25 43 50 115 25 71 52 148 61 171 l14 41 85 1 c46
0 84 -2 84 -6 0 -3 -20 -58 -45 -122 -186 -485 -235 -606 -245 -606 -6 0 -88
198 -181 440 -175 453 -172 447 -170 455 1 4 171 8 171 4z m118 -81 l10 -28 7
28 c7 25 25 39 25 18 0 -22 -23 -71 -34 -71 -10 0 -36 52 -36 73 0 18 19 4 28
-20z m112 17 c0 -5 -8 -10 -17 -11 -16 0 -15 -1 2 -8 19 -8 19 -8 0 -19 -18
-10 -18 -11 -2 -12 9 0 17 -4 17 -10 0 -5 -11 -10 -25 -10 -22 0 -25 4 -25 40
0 36 3 40 25 40 14 0 25 -4 25 -10z m53 -12 l16 -23 0 23 c1 40 21 23 21 -18
0 -45 -11 -51 -34 -18 l-16 22 0 -22 c0 -12 -4 -22 -10 -22 -5 0 -10 18 -10
40 0 45 10 51 33 18z m117 12 c0 -5 -7 -10 -15 -10 -11 0 -13 -8 -8 -30 4 -24
2 -30 -12 -30 -14 0 -16 6 -11 30 4 22 2 30 -9 30 -8 0 -15 5 -15 10 0 6 16
10 35 10 19 0 35 -4 35 -10z m75 -30 c0 -32 -2 -35 -30 -35 -24 0 -31 5 -33
23 -6 38 5 54 35 50 25 -3 28 -7 28 -38z m45 10 c0 -20 5 -30 15 -30 8 0 15
-4 15 -10 0 -5 -11 -10 -25 -10 -22 0 -25 4 -25 40 0 22 5 40 10 40 6 0 10
-13 10 -30z m100 20 c0 -5 -10 -11 -22 -11 -17 -1 -19 -2 -5 -6 9 -2 17 -8 17
-13 0 -5 -8 -11 -17 -13 -14 -4 -12 -5 5 -6 33 -2 27 -21 -8 -21 -28 0 -30 2
-30 40 0 38 2 40 30 40 17 0 30 -4 30 -10z m77 -6 c3 -8 1 -20 -5 -26 -8 -8
-9 -15 -1 -25 9 -10 8 -13 -5 -13 -9 0 -16 6 -17 13 0 10 -2 10 -6 0 -2 -7
-10 -13 -17 -13 -7 0 -10 14 -8 40 4 35 7 40 28 40 14 0 27 -7 31 -16z m88 -4
c11 -35 -3 -60 -35 -60 -20 0 -31 6 -35 20 -11 35 3 60 35 60 20 0 31 -6 35
-20z m-564 -95 c22 5 29 3 29 -9 0 -23 -61 -186 -70 -186 -8 0 -70 163 -70
185 0 17 39 24 63 12 10 -4 31 -5 48 -2z"/>
<path d="M2110 1630 c0 -11 7 -20 15 -20 8 0 15 9 15 20 0 11 -7 20 -15 20 -8
0 -15 -9 -15 -20z"/>
<path d="M2410 1630 c0 -13 7 -20 20 -20 13 0 20 7 20 20 0 13 -7 20 -20 20
-13 0 -20 -7 -20 -20z"/>
<path d="M12 1213 c12 -80 43 -189 80 -281 131 -324 384 -603 697 -766 168
-87 420 -162 517 -154 36 3 37 4 18 15 -12 7 -66 22 -119 34 -574 124 -997
526 -1141 1084 -17 67 -42 125 -54 125 -4 0 -3 -26 2 -57z"/>
<path d="M861 1055 c-30 -39 -36 -82 -15 -106 23 -26 40 -24 71 7 l25 25 27
-25 c34 -33 61 -33 99 -1 l29 24 21 -22 c25 -27 84 -28 113 -3 25 21 32 20 54
-4 23 -26 53 -25 81 1 l23 21 27 -21 c15 -11 37 -21 50 -21 28 0 64 44 64 80
0 32 -37 70 -70 70 -13 0 -34 -10 -47 -22 l-23 -21 -23 21 c-29 27 -57 28 -89
2 -25 -19 -26 -19 -43 0 -27 30 -89 27 -119 -5 l-23 -25 -23 25 c-31 33 -74
33 -104 0 l-23 -25 -23 25 c-29 31 -34 31 -59 0z m37 -47 c-2 -36 -7 -44 -25
-46 -26 -4 -31 15 -8 24 9 4 15 19 15 35 0 16 5 29 11 29 6 0 9 -17 7 -42z
m152 22 c14 -27 4 -57 -21 -65 -25 -8 -49 11 -49 39 0 45 50 63 70 26z m118
-2 l11 -23 7 23 c12 41 34 26 34 -23 0 -25 -4 -45 -10 -45 -5 0 -10 12 -10 27
0 25 -1 26 -14 8 -13 -18 -13 -18 -25 1 -11 18 -11 18 -9 -2 2 -11 -1 -20 -7
-20 -8 1 -12 54 -6 74 3 10 20 -2 29 -20z m182 12 c0 -5 -8 -11 -17 -11 -17
-1 -17 -2 0 -6 21 -5 23 -23 2 -23 -8 0 -15 -4 -15 -10 0 -5 7 -7 15 -4 9 4
15 0 15 -10 0 -10 -9 -16 -25 -16 -23 0 -25 4 -25 45 0 41 2 45 25 45 14 0 25
-4 25 -10z m140 -5 c10 -12 10 -18 1 -29 -8 -10 -9 -16 -1 -21 5 -3 10 -10 10
-16 0 -15 -22 -10 -36 9 -13 16 -13 16 -14 0 0 -10 -4 -18 -10 -18 -5 0 -10
20 -10 45 0 41 2 45 24 45 13 0 29 -7 36 -15z"/>
<path d="M1000 1011 c0 -25 19 -38 31 -20 12 19 6 33 -14 37 -11 2 -17 -3 -17
-17z"/>
</g>
</svg>
